<?xml version="1.0" encoding="UTF-8" standalone="no"?>
<!-- Created with Inkscape (http://www.inkscape.org/) -->

<svg
   xmlns:dc="http://purl.org/dc/elements/1.1/"
   xmlns:cc="http://creativecommons.org/ns#"
   xmlns:rdf="http://www.w3.org/1999/02/22-rdf-syntax-ns#"
   xmlns:svg="http://www.w3.org/2000/svg"
   xmlns="http://www.w3.org/2000/svg"
   xmlns:sodipodi="http://sodipodi.sourceforge.net/DTD/sodipodi-0.dtd"
   xmlns:inkscape="http://www.inkscape.org/namespaces/inkscape"
   id="svg2985"
   version="1.1"
   inkscape:version="0.48.5 r10040"
   width="1000"
   height="510.53647"
   xml:space="preserve"
   sodipodi:docname="A.svg"><metadata
     id="metadata2991"><rdf:RDF><cc:Work
         rdf:about=""><dc:format>image/svg+xml</dc:format><dc:type
           rdf:resource="http://purl.org/dc/dcmitype/StillImage" /><dc:title></dc:title></cc:Work></rdf:RDF></metadata><defs
     id="defs2989"><clipPath
       clipPathUnits="userSpaceOnUse"
       id="clipPath3001"><path
         d="m 0,595.276 841.89,0 L 841.89,0 0,0 0,595.276 z"
         id="path3003"
         inkscape:connector-curvature="0" /></clipPath><clipPath
       clipPathUnits="userSpaceOnUse"
       id="clipPath3015"><path
         d="m 0,595.276 841.89,0 L 841.89,0 0,0 0,595.276 z"
         id="path3017"
         inkscape:connector-curvature="0" /></clipPath><clipPath
       clipPathUnits="userSpaceOnUse"
       id="clipPath3027"><path
         d="m 685.984,517.632 102.101,0 0,33.707 -102.101,0 0,-33.707 z"
         id="path3029"
         inkscape:connector-curvature="0" /></clipPath><clipPath
       clipPathUnits="userSpaceOnUse"
       id="clipPath3087"><path
         d="m 685.984,517.631 102.101,0 0,33.707 -102.101,0 0,-33.707 z"
         id="path3089"
         inkscape:connector-curvature="0" /></clipPath><clipPath
       clipPathUnits="userSpaceOnUse"
       id="clipPath3103"><path
         d="m 685.984,517.632 102.101,0 0,33.707 -102.101,0 0,-33.707 z"
         id="path3105"
         inkscape:connector-curvature="0" /></clipPath><clipPath
       clipPathUnits="userSpaceOnUse"
       id="clipPath3235"><path
         d="m 685.984,517.631 102.101,0 0,33.707 -102.101,0 0,-33.707 z"
         id="path3237"
         inkscape:connector-curvature="0" /></clipPath><clipPath
       clipPathUnits="userSpaceOnUse"
       id="clipPath3247"><path
         d="m 0,0 841.89,0 0,595.276 L 0,595.276 0,0 z"
         id="path3249"
         inkscape:connector-curvature="0" /></clipPath><clipPath
       clipPathUnits="userSpaceOnUse"
       id="clipPath3459"><path
         inkscape:connector-curvature="0"
         d="m 30.153,12.0608 212.7671,0 0,70 -212.7671,0 0,-70 z"
         id="path3461" /></clipPath><clipPath
       clipPathUnits="userSpaceOnUse"
       id="clipPath3467"><path
         inkscape:connector-curvature="0"
         d="m 33.991,30.1538 143.0907,0 0,42.9101 -143.0907,0 0,-42.9101 z"
         id="path3469" /></clipPath><clipPath
       clipPathUnits="userSpaceOnUse"
       id="clipPath3657"><path
         inkscape:connector-curvature="0"
         d="m 212.598,27.276 178.583,0 0,71.937 -178.583,0 0,-71.937 z"
         id="path3659" /></clipPath><clipPath
       clipPathUnits="userSpaceOnUse"
       id="clipPath3665"><path
         inkscape:connector-curvature="0"
         d="m 248.889,78.831 0,-42.833 142.68,0 0,42.833"
         id="path3667" /></clipPath><clipPath
       clipPathUnits="userSpaceOnUse"
       id="clipPath4470"><path
         inkscape:connector-curvature="0"
         d="m 0,0 96.8496,0 0,49.4004 L 0,49.4004 0,0 z"
         id="path4472" /></clipPath><clipPath
       clipPathUnits="userSpaceOnUse"
       id="clipPath4478"><path
         inkscape:connector-curvature="0"
         d="m 0,49.4 96.85,0 L 96.85,0 0,0 0,49.4 z"
         id="path4480" /></clipPath></defs><sodipodi:namedview
     pagecolor="#ffffff"
     bordercolor="#666666"
     borderopacity="1"
     objecttolerance="10"
     gridtolerance="10"
     guidetolerance="10"
     inkscape:pageopacity="0"
     inkscape:pageshadow="2"
     inkscape:window-width="1055"
     inkscape:window-height="1035"
     id="namedview2987"
     showgrid="false"
     fit-margin-left="0.5"
     fit-margin-bottom="0.5"
     fit-margin-top="0.5"
     fit-margin-right="0.5"
     inkscape:zoom="0.3662165"
     inkscape:cx="682.03562"
     inkscape:cy="-45.661953"
     inkscape:window-x="861"
     inkscape:window-y="-9"
     inkscape:window-maximized="0"
     inkscape:current-layer="g2993" /><g
     id="g2993"
     inkscape:groupmode="layer"
     inkscape:label="2014-0328-AKTIV-CAMPUS-AABENRAA_workshop-ungdomsuddannelser_Ane-Tarp-Hansen_Anette-Kold"
     transform="matrix(1.25,0,0,-1.25,-1251.8565,1427.3297)"><g
       id="g4462"
       transform="matrix(7.9999875,0,0,7.9999875,-1285.7129,1365.6592)"><g
         id="g4464"
         transform="matrix(1.0315,0,0,1.0315,285.95,-78.9782)"><g
           id="g4466"><g
             id="g4468"
             clip-path="url(#clipPath4470)"><g
               id="g4474"><g
                 id="g4476"
                 clip-path="url(#clipPath4478)"><g
                   id="g4482"
                   transform="translate(72.9658,18.3799)"><path
                     d="m 0,0 c -0.014,0.028 -0.03,0.054 -0.045,0.075 -0.017,0.026 -0.037,0.047 -0.061,0.07 0,0 -0.178,-0.078 -0.25,-0.184 -0.145,-0.203 0.141,-0.656 0.141,-0.656 -0.24,0.08 -0.389,0.281 -0.394,0.419 -0.006,0.185 0.169,0.601 0.169,0.601 0.053,0.166 0.11,0.403 0.167,0.647 0.056,0.24 0.11,0.487 0.191,0.775 0.163,0.565 0.401,1.203 0.536,1.774 0.103,0.417 0.179,0.788 0.204,1.037 0.062,0.612 0.134,1.761 0.177,2.515 0.023,0.405 0.016,0.303 0.016,0.336 0,0.098 0.056,1.119 0.544,1.547 0.32,0.277 0.623,0.231 0.993,0.406 0,0 -0.53,0.217 -1.18,0.073 0,0 -1.122,-0.882 -1.654,-4.815 0,0 -0.657,-3.661 -0.678,-4.035 -0.01,-0.193 0.173,-1.12 0.173,-1.12 0,0 0.569,-0.247 0.689,-0.224 0.074,0.028 0.174,0.033 0.343,0.078 C 0.248,-0.632 0.353,-0.62 0.64,-0.716 -0.045,-0.408 0.092,-0.171 0,0"
                     style="fill:#696a6b;fill-opacity:1;fill-rule:nonzero;stroke:none"
                     id="path4484"
                     inkscape:connector-curvature="0" /></g><g
                   id="g4486"
                   transform="translate(77.7383,31.5166)"><path
                     d="M 0,0 0.675,-0.024 C 0.877,-0.032 0.999,0.028 0.986,0.161 0.977,0.269 0.691,0.323 0.691,0.323 L 0.201,0.247 C 0.201,0.247 0.143,0.039 0,0"
                     style="fill:#696a6b;fill-opacity:1;fill-rule:nonzero;stroke:none"
                     id="path4488"
                     inkscape:connector-curvature="0" /></g><g
                   id="g4490"
                   transform="translate(84.124,27.9482)"><path
                     d="M 0,0 C 0,0.056 -0.101,0.888 -0.101,1.521 -0.104,1.847 -0.107,2.118 -0.11,2.209 -0.119,2.401 -0.311,2.312 -0.348,2.239 -0.442,2.066 -0.483,2.103 -0.483,2.103 c 0,0 -0.058,0.01 -0.069,-0.157 -0.026,0.122 -0.039,0.112 -0.076,0.149 -0.139,0.131 -0.215,-0.33 -0.215,-0.33 0,0 -0.011,-0.094 -0.019,-0.325 -0.001,-0.048 -0.004,-0.108 -0.004,-0.168 0,-0.236 0.02,-0.671 0.166,-0.991 0.027,-0.053 0.058,-0.072 0.101,-0.076 0,0 -0.046,-0.325 0.058,-0.483 0.191,-0.297 0.295,-0.229 0.295,-0.229 C 0.097,-0.224 0.002,-0.118 0,0"
                     style="fill:#696a6b;fill-opacity:1;fill-rule:nonzero;stroke:none"
                     id="path4492"
                     inkscape:connector-curvature="0" /></g><g
                   id="g4494"
                   transform="translate(76.1006,28.7266)"><path
                     d="m 0,0 c 0,-0.173 0.063,-0.332 0.164,-0.466 -0.173,-0.161 -0.372,-0.378 -0.409,-0.427 -0.075,-0.097 -0.227,-0.14 -0.227,-0.14 0,0 -0.163,-0.988 0.206,-0.855 0,0 0.058,0.236 0.257,0.193 0.334,-0.073 0.423,0.054 0.558,0.157 0.09,0.069 0.358,0.013 0.358,0.013 0.21,0.046 0.458,-0.057 0.501,0.132 -0.002,0.028 -0.008,0.049 -0.008,0.049 -0.167,0.139 -0.643,0.073 -0.643,0.073 0,0 0.073,0.029 0.175,0.042 0.034,0.008 0.1,-10e-4 0.106,0.055 0,0 0.041,-0.001 0.259,-0.067 0.175,-0.056 0.187,0.032 0.198,0.067 -0.004,0.067 -0.054,0.113 -0.054,0.113 0,0 -0.231,0.095 -0.34,0.116 -0.108,0.015 -0.41,-0.025 -0.41,-0.025 0,0 0.011,0.012 0.186,0.049 0.063,0.014 0.126,0.014 0.12,0.069 0,0 0.126,-0.013 0.295,-0.093 0.115,-0.059 0.172,-0.056 0.204,-0.039 0.011,0.019 0.039,0.043 0.043,0.06 l 0,0.04 c -0.013,0.097 -0.104,0.135 -0.104,0.135 0,0 -0.359,0.128 -0.456,0.138 -0.096,0.013 -0.409,-0.067 -0.409,-0.067 0.079,0.057 0.167,0.065 0.268,0.082 0.141,0.028 0.123,0.104 0.123,0.104 0,0 0.03,-0.045 0.314,-0.129 0.077,-0.024 0.281,-0.128 0.221,0.058 -0.015,0.024 -0.052,0.066 -0.089,0.098 0.09,0.126 0.147,0.279 0.151,0.449 0.008,0.437 -0.338,0.8 -0.768,0.809 -0.053,0 -0.103,-0.02 -0.156,-0.029 0,0 0.001,0 0.001,0.002 C 0.432,0.479 0.181,0.21 0,0 M 0.501,0.29 C 0.578,0.364 0.677,0.404 0.784,0.402 1.003,0.398 1.177,0.214 1.174,-0.008 1.172,-0.138 1.106,-0.246 1.011,-0.316 0.972,-0.305 0.94,-0.299 0.932,-0.292 0.897,-0.271 0.695,-0.285 0.506,-0.29 0.501,-0.285 0.496,-0.282 0.491,-0.279 0.418,-0.201 0.379,-0.1 0.38,0.007 0.384,0.115 0.424,0.217 0.501,0.29"
                     style="fill:#696a6b;fill-opacity:1;fill-rule:nonzero;stroke:none"
                     id="path4496"
                     inkscape:connector-curvature="0" /></g><g
                   id="g4498"
                   transform="translate(76.6348,18.2324)"><path
                     d="m 0,0 c -0.388,0.281 -1.417,-0.201 -1.417,-0.201 0,0 -0.187,-0.434 0.193,-0.426 0.206,0.004 0.56,-0.019 0.84,0.043 0.224,0.045 0.569,-0.041 0.866,-0.047 C 0.928,-0.508 0,0 0,0"
                     style="fill:#696a6b;fill-opacity:1;fill-rule:nonzero;stroke:none"
                     id="path4500"
                     inkscape:connector-curvature="0" /></g><g
                   id="g4502"
                   transform="translate(70.5977,20.4873)"><path
                     d="m 0,0 c -0.083,-0.491 -0.271,-1.349 -0.3,-1.658 -0.025,-0.309 -0.038,-0.859 -0.038,-0.859 0.117,-0.069 0.264,-0.121 0.317,-0.149 L 0.553,2.03 C 0.553,2.03 0.085,0.491 0,0"
                     style="fill:#696a6b;fill-opacity:1;fill-rule:nonzero;stroke:none"
                     id="path4504"
                     inkscape:connector-curvature="0" /></g><g
                   id="g4506"
                   transform="translate(77.957,31.832)"><path
                     d="M 0,0 0.473,0.008 C 0.811,-0.016 0.911,0.127 0.785,0.266 0.719,0.338 0.238,0.332 0.238,0.332 L -0.078,0.223 C -0.078,0.223 0.081,0.188 0,0"
                     style="fill:#696a6b;fill-opacity:1;fill-rule:nonzero;stroke:none"
                     id="path4508"
                     inkscape:connector-curvature="0" /></g><g
                   id="g4510"
                   transform="translate(95.749,27.4707)"><path
                     d="m 0,0 -0.17,9.884 0.695,0 -3.002,5.95 c 0.299,0.15 0.507,0.461 0.507,0.821 0,0.506 -0.414,0.919 -0.921,0.919 -0.506,0 -0.919,-0.413 -0.919,-0.919 0,-0.36 0.206,-0.671 0.504,-0.821 l -3.001,-5.95 0.697,0 -0.051,-2.893 -0.182,0.696 c -0.599,2.331 -2.716,4.052 -5.23,4.052 -0.047,0 -0.092,0 -0.134,-0.004 -0.417,1.969 -1.905,3.542 -3.821,4.081 l 0,1.943 0.288,0 -1.419,2.807 c 0.234,0.121 0.395,0.363 0.395,0.642 0,0.396 -0.322,0.719 -0.717,0.719 -0.397,0 -0.718,-0.323 -0.718,-0.719 0,-0.279 0.157,-0.521 0.393,-0.642 l -1.418,-2.807 0.289,0 0,-1.943 c -1.916,-0.539 -3.404,-2.112 -3.822,-4.081 -0.043,0.004 -0.089,0.004 -0.133,0.004 -2.515,0 -4.628,-1.721 -5.23,-4.052 l -0.184,-0.696 -0.05,2.893 0.695,0 -2.999,5.95 c 0.299,0.15 0.504,0.461 0.504,0.821 0,0.506 -0.41,0.919 -0.92,0.919 -0.508,0 -0.917,-0.413 -0.917,-0.919 0,-0.36 0.205,-0.671 0.504,-0.821 l -3.002,-5.95 0.695,0 -0.17,-9.884 -0.918,0 -0.183,-9.887 7.976,0 -0.17,9.887 0,4.5 c 0,0.715 0.186,1.792 0.386,2.501 0.068,0.238 0.142,0.467 0.218,0.686 0.555,1.545 2.032,2.649 3.765,2.649 0.513,0 1.006,-0.098 1.455,-0.272 -0.024,0.18 -0.039,0.362 -0.039,0.549 0,2.21 1.78,4.005 3.993,4.005 2.21,0 3.99,-1.795 3.99,-4.005 0,-0.187 -0.013,-0.369 -0.037,-0.549 0.449,0.174 0.939,0.272 1.455,0.272 1.732,0 3.21,-1.104 3.764,-2.649 0.08,-0.219 0.15,-0.448 0.217,-0.686 0.203,-0.709 0.388,-1.786 0.388,-2.501 l 0,-4.5 -0.171,-9.887 7.977,0 L 0.918,0 0,0 z m -30.764,7.654 10e-4,0 0,0.108 c 0.027,0.36 0.325,0.644 0.689,0.644 0.192,0 0.362,-0.078 0.488,-0.204 0.114,-0.117 0.189,-0.267 0.2,-0.44 l 0.004,0 0,-3.902 -1.382,0 0,3.794 z m -0.321,-15.64 -1.382,0 0,3.613 c 0,0.019 0,0.037 0.003,0.052 0.026,0.358 0.325,0.64 0.689,0.64 0.362,0 0.659,-0.282 0.686,-0.64 0,-0.015 0.004,-0.033 0.004,-0.052 l 0,-3.613 z m 1.011,4.771 c -0.574,0 -1.042,0.465 -1.042,1.041 0,0.573 0.468,1.041 1.042,1.041 0.576,0 1.041,-0.468 1.041,-1.041 0,-0.576 -0.465,-1.041 -1.041,-1.041 m 2.397,-4.771 -1.378,0 0,3.613 c 0,0.019 0,0.037 0.001,0.052 0.028,0.358 0.326,0.64 0.689,0.64 0.363,0 0.661,-0.282 0.686,-0.64 0.002,-0.015 0.002,-0.033 0.002,-0.052 l 0,-3.613 z m 24.096,15.748 0.002,0 c 0.014,0.173 0.089,0.323 0.2,0.44 0.124,0.126 0.298,0.204 0.488,0.204 0.367,0 0.665,-0.284 0.691,-0.644 l 0,-0.108 0.001,0 0,-3.794 -1.382,0 0,3.902 z m -0.326,-15.748 -1.381,0 0,3.613 c 0,0.019 0.002,0.037 0.003,0.052 0.027,0.358 0.322,0.64 0.685,0.64 0.366,0 0.662,-0.282 0.692,-0.64 0,-0.015 10e-4,-0.033 10e-4,-0.052 l 0,-3.613 z m 1.016,4.771 c -0.573,0 -1.042,0.465 -1.042,1.041 0,0.573 0.469,1.041 1.042,1.041 0.577,0 1.042,-0.468 1.042,-1.041 0,-0.576 -0.465,-1.041 -1.042,-1.041 m 2.396,-4.771 -1.386,0 0,3.613 c 0,0.019 0.003,0.037 0.003,0.052 0.029,0.358 0.326,0.64 0.69,0.64 0.364,0 0.661,-0.282 0.689,-0.64 0,-0.015 0.004,-0.033 0.004,-0.052 l 0,-3.613 z"
                     style="fill:#696a6b;fill-opacity:1;fill-rule:nonzero;stroke:none"
                     id="path4512"
                     inkscape:connector-curvature="0" /></g><g
                   id="g4514"
                   transform="translate(80.6895,29.9619)"><path
                     d="M 0,0 C 0.063,-0.004 0.154,0.007 0.239,0.041 0.382,0.103 0.585,0.284 0.671,0.472 0.705,0.67 0.567,0.82 0.478,0.861 0.404,0.894 0.359,0.89 0.283,0.864 0.211,0.841 0.049,0.755 0.049,0.755 0.101,0.808 0.076,0.911 0.076,0.911 0.197,0.829 0.703,1.052 0.604,1.636 0.585,1.757 0.566,1.788 0.567,1.853 0.57,1.95 0.583,2.029 0.567,2.103 0.55,2.207 0.606,2.401 0.595,2.496 0.585,2.593 0.438,2.569 0.38,2.543 0.177,2.452 0.17,2.124 0.147,2.021 c 0,0 -0.03,0.007 -0.064,0.025 C 0.038,2.063 0.031,2.099 -0.02,2.147 -0.045,2.17 -0.143,2.287 -0.184,2.345 -0.225,2.399 -0.515,2.718 -0.644,2.836 -0.768,2.949 -0.853,2.843 -0.858,2.763 -0.868,2.67 -0.62,2.323 -0.62,2.323 -0.418,2.052 -0.361,2.028 -0.361,2.028 L -0.415,1.986 c 0,0 0.022,0.033 -0.259,0.337 -0.034,0.035 -0.293,0.399 -0.394,0.503 -0.106,0.111 -0.218,-0.002 -0.238,-0.041 -0.063,-0.138 0.358,-0.639 0.358,-0.639 0.18,-0.26 0.332,-0.358 0.332,-0.358 L -0.679,1.735 C -0.642,1.767 -1.003,2.146 -1.003,2.146 -1.15,2.298 -1.268,2.49 -1.379,2.575 -1.526,2.681 -1.574,2.438 -1.499,2.333 -1.472,2.296 -1.419,2.194 -1.317,2.052 -1.22,1.923 -0.877,1.597 -0.877,1.597 L -0.909,1.571 c -0.087,0.11 -0.356,0.378 -0.542,0.508 -0.187,0.13 -0.238,-0.038 -0.193,-0.129 0.043,-0.086 0.245,-0.329 0.291,-0.383 0.05,-0.054 0.415,-0.319 0.44,-0.357 0.042,-0.066 0.142,-0.206 0.165,-0.234 0.044,-0.06 0.174,-0.247 0.254,-0.31 0,0 0.157,-0.104 0.254,-0.057 C -0.329,0.358 -0.244,0.074 0,0"
                     style="fill:#696a6b;fill-opacity:1;fill-rule:nonzero;stroke:none"
                     id="path4516"
                     inkscape:connector-curvature="0" /></g><g
                   id="g4518"
                   transform="translate(80.0635,19.25)"><path
                     d="m 0,0 c -0.04,-0.219 -0.082,-0.468 -0.103,-0.578 -0.178,-0.992 0.04,-1.35 0.04,-1.35 0,0 0.328,0.262 0.498,1.255 0.088,0.51 0.409,2.333 0.703,3.991 -0.086,0.79 -0.134,1.537 0.062,1.715 0.118,0.11 0.346,0.291 0.283,0.24 0.112,0.629 0.185,1.048 0.185,1.048 L 2.583,5.979 C 2.208,5.83 1.964,5.631 1.686,5.43 1.144,4.588 1.36,3.477 1.42,3.105 1.489,2.668 1.285,2.016 1.285,2.016 1.379,0.967 1.553,0.352 1.553,0.352 c 0,0 0.218,-0.547 0.615,-0.682 0,0 -0.423,0.065 -0.49,0.202 0,0 -0.108,-0.106 -0.15,-0.214 0,0 -0.398,-0.269 -0.256,-0.519 C 1.13,-1.003 1.122,-1.027 0.944,-1.141 0.769,-1.254 0.737,-1.279 0.436,-1.4 0.336,-1.443 0.202,-1.525 0.162,-1.596 0.148,-1.65 0.19,-1.66 0.202,-1.641 0.26,-1.566 0.351,-1.527 0.351,-1.527 0.224,-1.596 0.229,-1.672 0.27,-1.704 L 0.288,-1.71 c 0.026,-0.007 0.073,0 0.124,0.095 0.023,0.047 0.07,0.088 0.177,0.123 -0.027,-0.018 -0.228,-0.1 -0.142,-0.228 0.127,-0.055 0.193,0.111 0.219,0.139 0.089,0.089 0.167,0.091 0.3,0.124 C 0.681,-1.539 0.651,-1.59 0.73,-1.722 0.794,-1.79 0.969,-1.799 1.125,-1.738 c 0.259,0.002 0.637,0.207 0.874,0.218 0.094,0.009 0.094,-10e-4 0.243,-0.048 0.086,-0.028 0.337,-0.028 0.383,0.057 0.158,0.302 -0.37,0.639 -0.465,0.685 -0.092,0.047 -0.319,0.209 -0.319,0.209 0,0 0.305,-0.173 0.559,-0.258 0.188,-0.074 0.311,-0.096 0.35,-0.1 0.356,-0.046 0.532,0.129 0.868,0.157 0.802,0.726 0.955,1.1 1.206,2.211 0.104,0.443 0.282,1.123 0.328,1.65 C 5.121,2.346 5.124,2.151 5.137,1.896 5.16,1.473 5.203,0.074 5.171,-0.154 5.137,-0.383 5.018,-0.438 5.018,-0.438 c 0,0 0.202,-0.526 0.663,-0.585 0.106,-0.012 0.231,0 0.369,0.052 0,0 0.456,-0.343 1.123,-0.122 0.105,0.036 0.217,0.087 0.337,0.157 C 7.588,-0.89 7.599,2.701 7.56,3.178 7.533,3.501 7.502,3.59 7.406,3.743 7.284,4.003 7.059,4.219 7.059,4.219 c 0,0 -0.137,0.082 -0.118,0.313 0.03,0.363 0.08,0.331 0.201,0.175 0.22,-0.301 0.21,-0.584 0.264,-0.964 0,0 0.107,-0.145 0.26,-0.412 0.086,-0.153 0.049,-0.432 0.064,-0.663 0,0 0.022,-3.199 0.01,-3.514 0.041,0.116 0.141,0.237 0.141,0.237 0,0 0.011,3.949 -0.099,4.787 C 7.754,4.395 7.652,4.494 7.627,4.68 7.552,5.245 7.533,5.395 7.387,5.611 c 0,0 0.169,-0.134 0.322,-0.515 C 7.814,4.836 7.897,4.469 7.983,3.948 8.037,3.655 8.146,3.197 8.146,3.197 8.233,4.526 7.975,5.082 7.975,5.082 7.892,5.311 7.752,5.643 7.612,5.868 7.466,6.111 7.316,6.299 7.279,6.355 6.717,7.27 6.643,7.557 6.074,8.657 5.505,9.758 5.646,10.684 5.646,10.684 c 0,0 0.107,-0.396 0.25,-0.515 C 5.944,10.131 6.068,9.871 6.017,9.528 5.997,9.428 6.029,9.102 6.32,8.516 6.675,7.799 6.988,7.245 7.197,6.986 7.39,6.747 7.493,6.777 7.493,6.777 c -0.103,0.846 -0.83,3.565 -0.83,3.565 0,0 0.275,-0.164 0.396,-0.648 C 7.099,9.533 7.176,9.002 7.321,8.436 7.515,7.657 8.092,5.6 8.128,5.543 7.92,6.915 7.981,6.915 7.85,7.465 7.769,7.799 7.801,8.27 7.737,8.729 7.638,9.443 7.61,9.68 7.601,9.816 7.521,11.182 7.09,11.271 7.09,11.271 7.284,11.788 7.035,11.924 7.035,11.924 6.923,11.999 6.678,12.082 6.59,12.042 6.411,11.926 6.456,12.189 6.277,12.102 6.166,12.049 5.886,11.955 5.886,11.955 c 0.527,0.406 0.306,0.53 0.306,0.53 C 5.71,11.823 5.039,11.889 5.039,11.889 4.837,11.87 4.64,11.873 4.525,11.885 4.443,11.895 4.395,11.823 4.36,11.739 c -0.01,0.015 -0.024,0.034 -0.04,0.043 0.041,0.06 0.075,0.117 -0.033,0.195 -0.04,0.028 -0.066,0.06 -0.085,0.09 0,0 -0.088,0.187 -0.01,0.326 0.061,0.102 0.149,0.177 0.149,0.318 C 4.196,12.721 3.986,12.666 3.906,12.577 3.824,12.49 3.771,12.417 3.664,12.318 3.575,12.229 3.52,12.117 3.471,11.934 3.431,11.766 3.64,11.678 3.64,11.678 c 0,0 -0.432,0.056 -0.175,0.418 C 3.424,12.055 3.256,11.992 3.154,11.914 3.051,11.834 2.992,11.624 2.929,11.514 2.866,11.4 2.76,11.174 2.696,11.102 2.633,11.029 2.437,10.639 2.452,10.508 c 0.059,0.092 0.269,0.184 0.269,0.184 0.101,0.037 0.175,0.049 0.272,0.037 0.102,-0.012 0.102,-0.037 0.278,0.126 0.17,0.161 0.222,0.36 0.432,0.497 0.134,0.086 0.312,0.158 0.433,0.223 0.01,-0.048 0.036,-0.084 0.076,-0.096 0.034,-0.01 0.067,0.001 0.097,0.024 C 4.292,11.352 4.268,11.096 4.263,10.85 4.262,10.721 4.263,10.598 4.276,10.492 4.325,10.067 4.412,9.87 4.463,9.67 c 0,0 -0.271,0.443 -0.303,0.678 0,0 -0.02,-1.485 0.132,-1.795 C 4.193,8.471 4.104,8.396 4.075,8.378 L 4.028,8.344 C 3.976,8.305 3.856,8.217 3.856,8.217 3.845,8.212 3.829,8.203 3.814,8.191 3.697,8.12 3.451,7.973 3.398,7.954 3.338,7.926 3.265,7.938 3.16,7.938 3.053,7.938 3,7.872 2.935,7.807 2.935,7.807 2.651,7.754 2.579,7.799 2.531,7.826 2.359,7.947 2.227,8.043 2.163,8.09 2.11,8.128 2.084,8.152 2.214,8.191 2.319,8.262 2.339,8.366 2.35,8.43 2.322,8.493 2.282,8.553 l 0.007,0 -0.448,0.248 c 0.327,0.037 0.392,-0.037 0.537,0.09 0.169,0.151 0.411,0.365 0.623,0.537 0.211,0.176 0.156,0.498 0.196,0.711 0.028,0.779 -0.745,0.369 -0.745,0.369 L 2.386,10.311 C 2.374,10.274 2.261,10.244 2.233,10.264 2.792,9.889 2.479,9.443 2.479,9.443 c 0,0 0.242,0.44 -0.222,0.577 -0.573,0.168 -0.704,0.674 -0.78,0.779 -0.179,0.235 -0.331,-0.048 -0.478,-0.091 -0.103,-0.03 -0.144,-0.041 -0.374,0.004 -0.15,0.017 -0.232,0.136 -0.28,0.216 -0.05,0.088 -0.039,0.231 -0.039,0.231 0,0 -0.164,-0.156 -0.031,-0.376 0.132,-0.22 0.243,-0.595 0.276,-0.724 0.037,-0.131 0.148,-0.502 0.777,-1.254 0,0 0.031,-0.029 0.075,-0.07 C 1.324,8.689 1.265,8.633 1.251,8.555 1.232,8.436 1.312,8.314 1.451,8.23 1.45,8.221 1.446,8.209 1.445,8.201 1.306,8.141 1.16,8.064 1.12,8.039 1.003,7.961 0.938,7.9 0.919,7.829 c 0,-0.102 0.063,-0.106 0.19,-0.03 0.035,0.018 0.303,0.119 0.342,0.137 0.068,0.029 0.137,0.007 0.137,0.007 0,0 -0.511,-0.226 -0.6,-0.277 C 0.922,7.63 0.829,7.563 0.84,7.447 0.851,7.393 0.911,7.371 0.964,7.393 1.018,7.418 1.298,7.521 1.36,7.546 1.485,7.592 1.459,7.568 1.508,7.559 1.508,7.559 0.953,7.316 0.91,7.292 0.869,7.268 0.847,7.207 0.847,7.157 0.854,7.096 0.91,7.057 0.966,7.078 1.006,7.092 1.261,7.209 1.333,7.241 1.406,7.273 1.469,7.232 1.469,7.232 1.469,7.232 0.988,7.02 0.977,7 0.969,6.995 0.951,6.967 0.959,6.947 L 0.116,7.245 -0.034,6.404 1.131,6.418 c 0,0 -0.461,-2.629 -0.82,-4.673 C 0.435,1.212 0.479,0.695 0,0 M 3.222,2.85 C 3.12,3.282 2.61,4.234 2.929,4.26 3.066,4.271 3.827,3.596 4.183,3.596 4.537,3.596 4.63,3.76 4.696,3.876 4.958,4.352 5.097,4.417 5.097,4.417 5.003,4.305 4.919,4.164 4.772,3.873 4.65,3.625 4.503,3.352 4.36,3.049 3.95,2.178 3.059,0.995 3.059,0.995 3.265,1.432 3.287,2.581 3.222,2.85 M 5.178,3.421 C 5.181,3.566 5.156,3.66 5.113,3.67 5.089,3.657 4.896,3.486 4.774,3.13 4.663,2.779 4.558,2.514 4.217,1.635 3.654,0.174 3.231,-0.068 3.231,-0.068 3.321,0.247 3.097,0.648 3.097,0.648 3.607,1.191 5.127,3.991 5.355,4.255 5.583,4.512 5.636,4.411 5.636,4.411 5.378,4.205 5.245,3.827 5.178,3.421 M 5.55,-0.199 C 5.593,-0.035 5.604,1.994 5.604,1.994 5.668,1.232 5.931,-0.525 5.931,-0.525 5.625,-0.492 5.507,-0.361 5.55,-0.199 M 7.254,2.864 C 7.161,3.501 7.15,3.651 6.952,3.965 c 0,0 0.442,-0.429 0.476,-1.23 0.033,-0.797 -0.047,-2.859 -0.104,-3.418 0,0 -0.347,-0.44 -0.592,0.314 0,0 0.245,-0.151 0.336,0.439 0.093,0.593 0.279,2.157 0.186,2.794 m -2.893,8.7 c 0.416,-0.099 0.574,-0.037 0.718,0 -0.036,-0.16 -0.372,-0.154 -0.372,-0.154 0.07,-0.034 0.194,-0.171 0.258,-0.275 0.14,-0.227 -0.194,-0.1 -0.194,-0.1 -0.022,0.305 -0.41,0.529 -0.41,0.529 M 4.474,9.625 C 4.509,9.462 4.559,9.133 4.622,8.852 4.585,8.807 4.431,8.67 4.292,8.553 4.607,8.819 4.506,9.455 4.474,9.625 M 1.053,6.911 C 1.113,6.887 1.24,6.889 1.279,6.903 c 0,0 0.32,0.107 0.368,0.121 0.118,0.039 0.118,0.021 0.147,0.109 0.031,-0.199 0.15,-0.287 0.341,-0.314 0.234,-0.032 0.367,0.15 0.54,0.146 0,0 0.193,-0.018 0.226,-0.014 0.02,-0.068 0.04,-0.118 0.04,-0.118 0.182,-0.145 0.304,0.054 0.231,0.196 0,0 0.105,-0.11 0.266,-0.119 C 3.646,6.9 4.1,7.021 4.322,7.096 4.563,7.178 5.032,7.358 5.093,7.508 5.14,7.62 4.905,8.035 4.816,8.283 4.777,8.383 4.765,8.396 4.711,8.538 4.752,8.43 4.858,8.209 4.983,7.965 5.001,7.926 5.022,7.887 5.04,7.846 5.131,7.676 5.228,7.498 5.318,7.346 5.422,7.163 5.52,7.014 5.583,6.946 5.795,6.721 5.981,6.609 6.105,6.387 5.906,6.676 5.695,7.651 5.583,8.02 5.469,8.391 5.097,9.063 5.001,9.237 4.905,9.414 4.746,9.991 4.724,10.184 c -0.032,0.254 0.005,0.567 0.005,0.567 0,0 0.408,-1.218 0.449,-1.393 C 5.217,9.182 5.644,7.861 5.73,7.676 5.818,7.492 6.371,5.962 6.515,5.799 6.56,5.768 6.688,5.624 6.806,5.482 6.958,5.301 7.113,5.096 7.277,4.834 7.12,5.045 6.898,5.122 6.898,5.122 6.727,5.25 6.735,5.327 6.72,5.411 6.686,5.608 6.515,5.799 6.515,5.799 6.434,5.864 6.362,5.953 6.294,6.053 6.229,6.156 6.167,6.273 6.105,6.387 c 0,0 -0.393,0.352 -0.64,0.472 C 5.19,6.993 5.048,7.07 4.852,6.985 4.235,6.71 3.597,6.682 3.541,6.689 2.986,6.779 3.329,6.518 3.329,6.518 3.635,6.456 3.605,6.346 4.336,6.311 5.018,6.277 5.108,6.266 5.477,6.197 5.841,6.127 6.039,5.918 6.039,5.918 5.666,6.039 5.402,6.096 4.88,5.998 4.075,5.855 3.329,6.518 3.329,6.518 2.828,6.747 2.892,6.438 2.96,6.362 3.066,6.245 3.155,6.189 3.155,6.189 2.81,6.311 2.966,6.082 2.966,6.082 3.2,5.962 3.357,5.827 3.357,5.827 4.301,4.958 4.974,4.813 5.384,4.881 5.443,4.893 5.565,4.939 5.62,4.926 5.466,4.863 5.418,4.811 5.366,4.768 5.163,4.6 4.681,4.516 4.309,4.465 3.828,4.398 3.329,4.512 3.172,4.635 3.066,4.721 3.034,5.014 3.247,5.078 3.535,5.164 3.605,5.26 3.618,5.426 3.628,5.542 3.357,5.827 3.357,5.827 2.921,6.073 2.757,5.911 2.757,5.911 l 0.149,0.841 -0.038,0 -0.3,0.003 C 2.455,6.755 2.48,6.76 2.354,6.749 2.276,6.744 2.194,6.732 2.11,6.747 2.096,6.749 2.08,6.755 2.066,6.76 L 1.744,6.762 C 1.752,6.805 1.758,6.84 1.765,6.881 1.698,6.916 1.647,6.947 1.647,6.947 1.647,6.947 1.564,6.946 1.492,6.919 1.406,6.889 1.25,6.844 1.25,6.844 L 1.053,6.911 z m 4.48,-1.614 c 0,0 -0.438,-0.291 -1.075,0.076 -0.642,0.366 -0.873,0.545 -0.927,0.589 0,0 0.634,-0.3 1.052,-0.208 0.418,0.088 0.583,0.176 0.97,0.172 0,0 -0.635,-0.192 -0.597,-0.533 C 4.971,5.264 5.241,5.229 5.533,5.297"
                     style="fill:#696a6b;fill-opacity:1;fill-rule:nonzero;stroke:none"
                     id="path4520"
                     inkscape:connector-curvature="0" /></g><g
                   id="g4522"
                   transform="translate(75.791,26.6387)"><path
                     d="M 0,0 C 0.006,0.01 0.015,0.025 0.019,0.034 0.015,0.025 0.006,0.01 0,0"
                     style="fill:#696a6b;fill-opacity:1;fill-rule:nonzero;stroke:none"
                     id="path4524"
                     inkscape:connector-curvature="0" /></g><g
                   id="g4526"
                   transform="translate(74.3613,29.3965)"><path
                     d="m 0,0 c 0,0 0.049,-0.639 0.275,-0.752 0.254,-0.127 0.416,-0.434 0.765,-0.265 0,0 1.276,1.197 1.278,1.702 C 2.146,0.793 2.089,0.973 2.078,0.998 2.184,0.778 2.396,0.659 2.533,0.78 2.848,1.058 2.845,1.11 2.845,1.11 3.041,1.073 3.254,1.303 3.245,1.361 3.239,1.426 3.207,1.485 3.165,1.515 3.372,1.371 3.457,1.659 3.457,1.659 3.556,1.717 3.584,1.789 3.584,1.789 L 3.551,1.825 c 0.316,-0.036 0.593,0.12 0.593,0.12 0.031,0.031 0.034,0.053 0.023,0.076 -0.023,0.046 -0.114,0.073 -0.114,0.073 0,0 -0.769,-0.049 -0.817,-0.06 C 3.068,1.993 3.146,1.84 3.142,1.741 3.135,1.617 3.091,1.575 3.091,1.575 3.139,1.685 3.122,1.724 3.074,1.83 3.029,1.928 2.951,1.891 2.98,1.955 3.011,2.024 3.068,2.094 3.241,2.119 3.376,2.137 3.549,2.389 3.559,2.574 3.56,2.625 3.545,2.648 3.517,2.657 3.432,2.687 3.255,2.584 3.187,2.547 3.127,2.508 2.859,2.443 2.859,2.443 c 0,0 0.106,0.022 0.22,0.084 0.112,0.063 0.327,0.192 0.39,0.192 0.063,0 0.293,0.05 0.365,0.05 C 4.218,2.896 4.036,3.056 3.951,3.063 3.911,3.064 3.503,2.985 3.445,2.985 3.373,2.985 2.689,2.664 2.604,2.623 2.52,2.58 2.302,2.076 2.273,1.979 2.245,1.885 2.135,1.598 2.135,1.598 1.944,1.644 1.847,1.455 1.768,1.358 1.677,1.252 1.304,0.771 1.239,0.702 1.174,0.629 0.653,0.309 0.653,0.309 0.516,0.065 0.607,-0.115 0.594,-0.091 c 0,0 -0.119,0.132 -0.08,0.341 0,0 0.049,0.143 0.011,0.244 C 0.492,0.543 0.443,0.614 0.427,0.639 0.395,0.683 0.366,0.717 0.351,0.734 0.351,0.734 -0.073,1.004 0,0"
                     style="fill:#696a6b;fill-opacity:1;fill-rule:nonzero;stroke:none"
                     id="path4528"
                     inkscape:connector-curvature="0" /></g><g
                   id="g4530"
                   transform="translate(76.8262,27.1641)"><path
                     d="m 0,0 c 0.013,-0.146 0.026,-0.307 0.044,-0.481 -0.446,-0.056 -0.872,-0.135 -1.21,-0.203 -0.174,-0.148 -0.453,-0.287 -0.743,-0.395 l 0.003,10e-4 c 0.019,-0.114 0.06,-0.202 0.104,-0.198 0,0 0.933,0.003 1.906,0.09 0.044,-0.464 0.091,-0.984 0.139,-1.516 l 0,0.002 c 0.048,-0.113 0.14,-0.97 0.092,-1.052 0.002,0 0.002,0.007 0.002,0.007 0,-0.005 0,-0.007 0.001,-0.009 -0.001,0 -0.001,0.002 -0.003,0.002 -0.886,1.26 -2.173,1.756 -2.918,1.949 -0.206,0.016 -0.333,0.019 -0.371,-0.317 0,0 -0.041,-0.511 -0.023,-0.783 0.017,-0.212 0.123,-0.58 0.26,-0.625 0.139,-0.045 0.304,-0.013 0.304,-0.013 -0.04,-0.01 -0.167,-0.09 -0.247,-0.145 -0.079,-0.054 -0.253,-0.154 -0.322,-0.275 -0.071,-0.12 0.261,-0.035 0.261,-0.035 0.014,-0.102 0.18,-0.065 0.18,-0.065 0,0 0.014,-0.244 0.549,0.043 0.303,0.161 0.451,0.305 0.682,0.377 -0.076,-0.024 -0.22,-0.135 -0.316,-0.216 -0.181,-0.145 -0.303,-0.268 -0.473,-0.401 -0.157,-0.123 -0.68,-0.338 -1.067,-0.44 0.071,-0.077 0.234,-0.019 0.234,-0.019 -0.002,-0.944 1.441,-0.154 1.441,-0.154 -1.164,-0.949 -1.627,-0.01 -1.914,-0.393 1.349,-0.916 2.814,0.698 3.107,1.014 0.337,0.359 0.769,0.289 0.769,0.289 0,0 -0.006,-0.356 -0.044,-0.807 0,0.002 0.001,0.01 0.001,0.012 C 0.55,-6.12 0.652,-7.244 0.667,-7.401 0.712,-7.846 0.712,-8.01 0.551,-8.09 0.332,-8.199 0.195,-8.186 -0.025,-8.03 c -0.14,0.096 -0.258,0.211 -0.362,0.331 -0.002,0 -0.003,-0.004 -0.003,-0.004 l 0.003,0.004 c -0.152,0.177 -0.261,0.357 -0.335,0.493 0.19,-0.123 0.341,-0.13 0.438,-0.11 0.012,0.003 0.034,0.007 0.034,0.007 0.057,0.018 0.091,0.038 0.094,0.043 l 0.065,0.047 -0.068,0.041 c -0.012,0.01 -0.024,0.018 -0.036,0.025 0,-0.002 -0.001,-0.002 -0.001,-0.002 l 0,0.002 c -0.672,0.449 -0.805,1.227 -0.831,1.503 0.023,-0.192 0.116,-0.592 0.495,-0.806 0.65,0.821 0.889,1.416 0.547,1.808 -0.153,0.177 -0.709,-0.133 -1.054,-0.373 -0.253,-0.176 -0.502,-0.364 -0.896,-0.687 -0.355,-0.296 -1.098,-1.03 -1.098,-1.03 0,0 0.808,1.062 0.379,1.01 -0.27,-0.129 -0.421,-0.543 -0.65,-0.95 -0.188,-0.377 -0.178,-0.459 -0.531,-0.625 -0.017,-0.754 1.413,0.09 1.931,0.608 0.307,0.308 0.401,0.421 0.49,0.672 l -0.027,-0.073 c -0.06,-0.168 -0.092,-0.332 -0.107,-0.486 -0.196,-0.172 -0.117,-0.114 -0.286,-0.231 -0.009,-0.008 -0.03,-0.023 -0.062,-0.049 -0.244,-0.183 -1.091,-0.827 -1.834,-1.148 -0.334,-0.143 0.023,-0.717 0.023,-0.717 -0.062,-0.383 0.486,-0.772 0.486,-0.772 0,0 0.27,-0.091 0.51,0.065 0.27,-0.101 0.7,0.073 1.104,0.301 0.516,0.293 0.983,0.677 0.983,0.677 -0.146,0.147 -0.256,0.185 -0.377,0.235 0,0 -0.152,0.051 -0.414,0 -0.265,-0.05 -0.633,-0.199 -1.243,-0.593 0,0 0.58,0.519 1.1,1.08 0.152,0.166 0.007,0.519 0.007,0.868 0.033,-0.59 0.322,-0.988 0.325,-0.995 l 0.129,-0.175 -0.031,0.216 c -0.026,0.171 -0.007,0.386 0.015,0.544 0.174,-0.519 0.353,-0.851 0.515,-1.074 l 0.002,0 0,-0.002 c 0.163,-0.22 0.307,-0.336 0.411,-0.414 0.313,-0.244 0.794,-0.57 1.127,-0.791 l 0,-0.002 0.001,0 c 0.213,-0.14 0.366,-0.24 0.37,-0.242 l 0.037,-0.024 0.03,0.034 c 0.009,0.008 0.817,0.84 1.226,1.341 0.166,0.205 0.466,0.573 0.57,1.664 0.057,-0.152 0.121,-0.355 0.137,-0.53 L 3.322,-7.438 C 3.321,-7.453 3.319,-7.459 3.317,-7.473 l 0.005,0.036 0.01,-0.093 0.085,0.2 C 3.421,-7.323 3.6,-6.893 3.518,-6.334 3.46,-5.94 3.272,-5.483 2.8,-5.063 l -0.123,0.112 0.035,-0.164 c 0,-0.01 0.226,-1.073 -0.49,-1.788 L 2.166,-6.961 2.24,-6.993 C 2.25,-6.998 2.499,-7.1 2.779,-6.807 2.712,-7.053 2.57,-7.451 2.286,-7.766 2.105,-7.967 1.977,-8.014 1.735,-7.953 c -0.173,0.04 -0.21,0.199 -0.266,0.641 -0.037,0.294 -0.537,3.867 -0.861,6.183 0.987,0.133 1.923,0.348 1.923,0.348 0.045,0.007 0.069,0.109 0.055,0.23 -0.015,0.125 -0.062,0.221 -0.106,0.217 0,0 -0.974,-0.004 -1.969,-0.096 C 0.488,-0.264 0.465,-0.11 0.446,0.029 0.481,0.027 0.52,0.025 0.549,0.027 0.449,0.021 0.307,0.037 0.184,0.037 0.104,0.037 0.054,0.021 0,0"
                     style="fill:#696a6b;fill-opacity:1;fill-rule:nonzero;stroke:none"
                     id="path4532"
                     inkscape:connector-curvature="0" /></g><g
                   id="g4534"
                   transform="translate(71.0674,18.6621)"><path
                     d="m 0,0 c 0.073,0.208 0.036,0.961 0.036,0.961 0,-0.121 -0.025,-0.549 -0.312,-1.008 -0.101,-0.162 -0.215,-0.795 -0.215,-0.795 0,0 0.07,-0.167 0.335,-0.095 C -0.182,-0.49 -0.108,-0.312 0,0"
                     style="fill:#696a6b;fill-opacity:1;fill-rule:nonzero;stroke:none"
                     id="path4536"
                     inkscape:connector-curvature="0" /></g><g
                   id="g4538"
                   transform="translate(75.3516,27.7432)"><path
                     d="m 0,0 c 0,0 -0.587,-0.245 -0.785,-0.367 -0.359,-0.216 -0.486,-0.599 -0.506,-0.728 -0.031,-0.232 -0.053,-0.473 0.524,-0.269 1.038,0.363 1.023,0.437 1.023,0.437 C 0.101,-0.815 0.277,-0.05 0.277,-0.05 0.228,0.022 0,0 0,0"
                     style="fill:#696a6b;fill-opacity:1;fill-rule:nonzero;stroke:none"
                     id="path4540"
                     inkscape:connector-curvature="0" /></g><g
                   id="g4542"
                   transform="translate(82.9297,43.8779)"><path
                     d="m 0,0 2.699,0.001 0.002,-0.004 -0.599,-2.623 -0.006,-0.012 0.003,0.005 -0.001,-0.006 0.006,0.013 1.669,2.105 0.005,0 1.685,-2.114 -0.611,2.63 0.003,0.002 L 7.557,0 5.117,1.161 6.805,3.275 4.376,2.096 3.779,4.732 3.188,2.098 0.759,3.282 0.755,3.277 2.439,1.167 2.439,1.164 0,0 z"
                     style="fill:#696a6b;fill-opacity:1;fill-rule:nonzero;stroke:none"
                     id="path4544"
                     inkscape:connector-curvature="0" /></g><g
                   id="g4546"
                   transform="translate(85.668,8.2305)"><path
                     d="m 0,0 c -1.725,-1.332 -3.958,-2.134 -6.401,-2.134 -2.44,0 -4.676,0.802 -6.402,2.134 -1.724,-1.332 -3.958,-2.134 -6.402,-2.134 -0.185,0 -0.334,0.005 -0.518,0.013 0.607,-0.707 1.27,-1.365 1.986,-1.967 1.888,0.245 3.548,0.975 4.934,2.045 1.726,-1.33 3.962,-2.134 6.402,-2.134 2.443,0 4.676,0.804 6.401,2.134 1.387,-1.07 3.051,-1.799 4.937,-2.044 0.713,0.603 1.377,1.259 1.984,1.966 C 6.738,-2.129 6.59,-2.134 6.404,-2.134 3.961,-2.134 1.725,-1.332 0,0"
                     style="fill:#696a6b;fill-opacity:1;fill-rule:nonzero;stroke:none"
                     id="path4548"
                     inkscape:connector-curvature="0" /></g><g
                   id="g4550"
                   transform="translate(92.5908,6.1094)"><path
                     d="M 0,0 0.009,0.012 -0.002,0 0,0 z"
                     style="fill:#696a6b;fill-opacity:1;fill-rule:nonzero;stroke:none"
                     id="path4552"
                     inkscape:connector-curvature="0" /></g><g
                   id="g4554"
                   transform="translate(74.0469,34.6782)"><path
                     d="m 0,0 c 0,0 -0.155,-0.094 -0.254,-0.081 0,0 -0.197,-0.152 -0.26,-0.326 -0.033,-0.092 -0.054,-0.131 -0.105,-0.181 -0.058,-0.061 -0.12,-0.09 -0.12,-0.09 0,-0.038 -0.011,-0.075 -0.03,-0.114 -0.041,-0.077 -0.1,-0.182 -0.155,-0.236 -0.083,-0.085 -0.093,-0.185 -0.075,-0.219 0.044,-0.061 0,-0.087 -0.019,-0.168 -0.015,-0.061 0.024,-0.205 0.022,-0.265 -0.011,-0.167 -0.034,-0.19 -0.075,-0.263 -0.043,-0.075 0.022,-0.16 0.022,-0.16 -0.017,-0.021 -0.064,-0.045 -0.096,-0.052 0.112,-0.271 0.424,-0.239 0.556,-0.222 0.048,0.005 0.192,-0.01 0.278,-0.018 0.103,-0.011 0.295,-0.057 0.384,-0.039 0.269,0.051 0.185,0.305 0.175,0.385 -0.019,0.084 -0.172,0.2 -0.172,0.2 0,0 0.131,-0.056 0.25,-0.058 l -0.014,0.065 c 0,0 -0.039,0.013 -0.105,0.03 -0.075,0.017 -0.246,0.022 -0.246,0.022 0,0 0.238,0.047 0.398,0.025 l -0.033,0.21 c 0.33,-0.006 0.267,0.185 0.22,0.29 -0.028,0.057 -0.079,0.188 -0.114,0.318 -0.025,0.096 -0.048,0.172 -0.048,0.186 0,0.008 0.035,0.08 0.023,0.134 C 0.366,-0.414 0.376,-0.055 0.376,-0.055 0.298,-0.055 0.204,0 0.204,0 0.204,0 0.101,-0.046 0,0 M 0.147,-0.931 C 0.105,-0.956 0.076,-0.968 0.021,-0.939 c -0.068,0.032 0,0.104 -0.176,0.13 0,0 0.028,0.029 0.116,0.051 0.139,0.04 0.241,-0.021 0.241,-0.021 0,0 -0.01,-0.125 -0.055,-0.152 m 0.068,0.191 c -0.083,0.012 -0.125,0.061 -0.239,0.037 -0.115,-0.021 -0.215,-0.031 -0.315,-0.005 0,0 0.12,0.032 0.193,0.073 0.072,0.044 0.258,0.12 0.517,-0.018 0,0 -0.073,-0.1 -0.156,-0.087"
                     style="fill:#696a6b;fill-opacity:1;fill-rule:nonzero;stroke:none"
                     id="path4556"
                     inkscape:connector-curvature="0" /></g><g
                   id="g4558"
                   transform="translate(85.668,12.3145)"><path
                     d="m 0,0 c -1.725,-1.33 -3.958,-2.135 -6.401,-2.135 -2.44,0 -4.676,0.805 -6.402,2.135 -1.724,-1.33 -3.958,-2.135 -6.402,-2.135 -1.197,0 -2.329,0.191 -3.391,0.547 l -0.001,0 c 0.35,-0.823 0.76,-1.613 1.225,-2.365 0.704,-0.147 1.414,-0.225 2.167,-0.225 2.444,0 4.678,0.804 6.402,2.136 1.726,-1.332 3.962,-2.136 6.402,-2.136 2.443,0 4.676,0.804 6.401,2.136 1.725,-1.332 3.961,-2.136 6.404,-2.136 0.753,0 1.459,0.078 2.168,0.225 0.464,0.752 0.874,1.542 1.222,2.365 C 8.733,-1.941 7.602,-2.135 6.404,-2.135 3.961,-2.135 1.725,-1.33 0,0"
                     style="fill:#696a6b;fill-opacity:1;fill-rule:nonzero;stroke:none"
                     id="path4560"
                     inkscape:connector-curvature="0" /></g><g
                   id="g4562"
                   transform="translate(71.9814,32.8867)"><path
                     d="m 0,0 c 0.009,0.072 0.014,0.09 0.027,0.157 0.034,0.164 0.112,0.294 0.112,0.294 -0.177,-0.596 0.101,-0.806 0.053,-0.773 0,0 -0.088,0.234 0.058,0.414 0,0 -0.042,-0.191 0.01,-0.243 0,0 0.007,0.176 0.112,0.311 0.087,0.114 0.111,0.176 0.139,0.288 0.035,0.153 0.052,0.217 0.09,0.276 0,0 -0.038,-0.084 -0.048,-0.253 C 0.55,0.369 0.547,0.356 0.518,0.274 0.457,0.104 0.344,-0.221 0.595,-0.394 c 0,0 -0.133,0.273 0.002,0.445 0,0 -0.031,-0.272 0.12,-0.33 0,0 -0.049,0.208 0.03,0.377 0.054,0.113 0.054,0.248 0.055,0.297 0,0 0.049,-0.184 0,-0.305 -0.042,-0.1 -0.03,-0.238 0.044,-0.309 0,0 -0.052,0.088 0.038,0.213 0.092,0.121 0.144,0.27 0.115,0.398 -0.041,0.174 -0.162,0.255 0.051,0.542 0,0 -0.036,-0.21 -0.004,-0.331 -0.007,0.034 -0.01,0.08 0.007,0.144 0.042,0.17 0.09,0.122 0.042,0.307 -0.032,0.116 0.093,0.231 0.093,0.231 0,0 -0.014,-0.019 -0.016,-0.084 0,-0.031 0.022,-0.075 0.034,-0.103 0.014,-0.04 0.019,-0.124 0.019,-0.124 0.037,0.058 0.023,0.199 0.019,0.297 -0.01,0.125 0.057,0.248 0.057,0.248 0,0 -0.012,-0.047 -0.006,-0.18 0.004,-0.088 0.031,-0.159 0.031,-0.226 0,0 0.066,0.016 0.074,0.188 C 1.411,1.447 1.459,1.502 1.446,1.622 1.527,1.525 1.479,1.305 1.479,1.305 1.593,1.445 1.539,1.514 1.521,1.631 1.503,1.739 1.625,1.814 1.625,1.814 1.574,1.765 1.591,1.645 1.652,1.638 c 0.058,-0.007 0.16,0.071 0.16,0.071 0,0 0.199,0.045 0.199,0.216 0,0 0.084,-0.192 0.211,-0.032 0,0 10e-4,-0.064 0.048,-0.101 0.165,-0.055 0.092,0.24 0.092,0.24 0,0 0.04,-0.025 0.074,-0.072 0.086,-0.119 0.04,0.096 0.04,0.096 C 2.358,2.268 1.899,2.368 1.681,2.392 1.465,2.418 1.219,2.43 0.971,2.418 0.628,2.397 0.465,2.253 0.307,2.121 0.155,1.994 0.011,1.711 -0.134,1.087 -0.279,0.463 -0.438,-0.035 -0.438,-0.115 -0.427,-0.537 -0.035,-0.306 0,0"
                     style="fill:#696a6b;fill-opacity:1;fill-rule:nonzero;stroke:none"
                     id="path4564"
                     inkscape:connector-curvature="0" /></g><g
                   id="g4566"
                   transform="translate(75.4873,25.6221)"><path
                     d="M 0,0 C -0.474,0.228 -0.859,0.364 -0.859,0.364 -1.574,0.187 -1.128,-0.096 -1.028,-0.14 -0.703,-0.272 -0.218,-0.526 0.293,-0.851 0.817,-1.185 1.56,-1.67 1.578,-1.178 1.32,-0.712 0.6,-0.284 0,0"
                     style="fill:#696a6b;fill-opacity:1;fill-rule:nonzero;stroke:none"
                     id="path4568"
                     inkscape:connector-curvature="0" /></g><g
                   id="g4570"
                   transform="translate(70.7275,41.7383)"><path
                     d="m 0,0 c -0.787,0 -1.501,0.304 -2.036,0.794 0.648,-0.812 1.664,-1.323 2.785,-1.323 1.955,0 3.538,1.584 3.538,3.54 0,1.955 -1.583,3.541 -3.538,3.541 -1.113,0 -2.137,-0.523 -2.785,-1.327 C -1.501,5.718 -0.787,6.019 0,6.019 1.66,6.019 3.007,4.672 3.007,3.011 3.007,1.349 1.66,0 0,0"
                     style="fill:#696a6b;fill-opacity:1;fill-rule:nonzero;stroke:none"
                     id="path4572"
                     inkscape:connector-curvature="0" /></g><g
                   id="g4574"
                   transform="translate(71.71,31.7139)"><path
                     d="m 0,0 c -0.029,0.224 0.163,0.282 0.26,0.321 0,0 -0.144,-0.004 -0.366,-0.189 -0.073,-0.059 -0.196,-0.173 -0.267,-0.259 -0.241,-0.304 -0.559,-0.746 -0.69,-1.202 -0.264,-0.913 -0.288,-1.297 -0.312,-1.824 -0.016,-0.336 -0.109,-1.53 -0.135,-2.291 -0.016,-0.502 -0.042,-0.823 -0.046,-1.059 -0.009,-0.234 -0.052,-7.059 -0.052,-7.059 l 0.128,1.575 0.371,3.811 c 0,0 0.177,1.454 0.213,2.368 0.037,0.912 0.109,2.655 0.145,2.905 0.034,0.254 0.178,0.902 0.312,1.058 l -0.179,-5.67 c 0,0 0.045,-1.236 0.058,-1.681 0,0 -0.046,-2.773 -0.046,-2.896 l 0.359,-1.897 c 0.108,-0.055 0.277,-0.071 0.48,0.084 l -0.217,0.576 -0.31,1.693 c 0,0 0.094,0.011 0.167,0.087 0.075,0.07 0.119,0.25 0.119,0.25 0.024,0.577 0.577,3.868 0.77,4.445 0.192,0.578 0.263,2.066 1.702,2.955 0,0 -0.165,0.168 -0.454,0.216 -0.288,0.048 -0.214,0.073 -0.214,0.073 0.107,0.175 -0.194,0.601 -0.194,0.601 -0.344,0.56 -0.542,0.651 -0.816,0.969 -0.359,0.415 -0.024,0.542 -0.024,0.542 0.061,-0.278 0.167,-0.407 0.31,-0.606 0.145,-0.2 0.53,-0.905 0.53,-0.905 0,0 0.146,1.015 -0.56,1.85 -0.174,0.203 -0.341,0.372 -0.488,0.512 -0.064,0.058 -0.12,0.113 -0.174,0.164 -0.08,0.074 -0.244,0.238 -0.255,0.257 -0.021,0.023 -0.02,0.038 -0.032,0.059 0.057,-0.059 0.148,-0.118 0.284,-0.175 0.56,-0.244 1.116,-0.358 1.395,-0.117 0.094,0.065 0.102,0.291 0.074,0.355 -0.045,0.1 -0.118,0.145 -0.045,0.356 0.025,0.07 0.051,0.152 -0.14,0.163 C 1.44,0.429 1.274,0.567 1.234,0.635 1.212,0.672 1.192,0.81 1.192,0.81 c 0,0 -0.079,-0.018 -0.127,0.002 0,0 -0.085,-0.11 -0.157,-0.072 0,0 -0.149,-0.094 -0.315,-0.012 L 0.359,0.657 C 0.359,0.499 0.26,0.321 0.26,0.321 0.26,0.321 0.071,0.082 0,0 m 0.956,-3.252 c 0.245,-0.586 0.675,-0.46 0.675,-0.46 -0.817,-0.381 -1.119,-1.816 -1.119,-1.816 0.074,1.179 0.611,1.5 0.444,2.276 m -0.597,2.603 c 0,0 -0.094,0.041 -0.243,0.105 -0.123,0.057 -0.29,0.117 -0.387,0.299 -0.054,0.139 0.103,0.318 0.174,0.377 0,0 -0.233,-0.259 0.456,-0.781"
                     style="fill:#696a6b;fill-opacity:1;fill-rule:nonzero;stroke:none"
                     id="path4576"
                     inkscape:connector-curvature="0" /></g><g
                   id="g4578"
                   transform="translate(79.2676,2.0127)"><path
                     d="M 0,0 C -2.441,0 -4.677,0.802 -6.402,2.134 -7.237,1.489 -8.191,0.969 -9.231,0.603 l -0.002,0 c 0.647,-0.398 1.322,-0.756 2.022,-1.075 0.281,0.175 0.553,0.366 0.809,0.561 1.725,-1.327 3.961,-2.102 6.402,-2.102 2.443,0 4.677,0.775 6.404,2.102 C 6.66,-0.106 6.929,-0.297 7.211,-0.472 7.909,-0.153 8.585,0.203 9.232,0.603 8.192,0.969 7.237,1.489 6.404,2.134 4.677,0.802 2.443,0 0,0"
                     style="fill:#696a6b;fill-opacity:1;fill-rule:nonzero;stroke:none"
                     id="path4580"
                     inkscape:connector-curvature="0" /></g><g
                   id="g4582"
                   transform="translate(85.1299,32.8008)"><path
                     d="m 0,0 c -0.045,0.105 -0.053,0.357 -0.095,0.516 -0.021,0.086 -0.112,0.213 -0.199,0.333 0,0 0.09,-0.111 0.26,-0.214 0.155,-0.094 0.282,-0.293 0.286,-0.383 0,0 -0.047,0.082 -0.151,0.064 C 0.022,0.309 -0.023,0.146 0,0 c 0.157,-0.184 0.196,0.068 0.196,0.068 0,0 0.071,-0.056 0.034,-0.154 0,0 0.099,-0.108 0.218,0.035 0.077,0.093 0.086,0.428 -0.273,0.686 -0.359,0.259 -0.349,0.454 -0.349,0.454 0,0 0.107,-0.155 0.31,-0.235 0.2,-0.079 0.297,-0.185 0.353,-0.321 0,0 -0.035,0.078 -0.213,0.106 0,0 0.421,-0.442 0.292,-0.715 0,0 0.176,0.146 0.062,0.396 0,0 0.134,-0.113 0.134,-0.222 0,0 0.138,0.185 -0.162,0.498 C 0.444,0.76 0.46,0.843 0.428,0.904 0.395,0.966 0.354,0.999 0.252,1.102 0.151,1.203 0.146,1.317 0.089,1.456 c 0,0 0.034,-0.089 0.146,-0.152 0,0 0.044,0.282 -0.054,0.403 0,0 0.106,-0.118 0.134,-0.23 C 0.343,1.367 0.415,1.237 0.466,1.17 0.517,1.102 0.574,1 0.551,0.822 0.526,0.639 0.69,0.589 0.73,0.55 0.77,0.512 0.966,0.359 0.938,0.123 c 0,0 0.107,0.158 -0.061,0.438 -0.168,0.282 -0.098,0.348 -0.086,0.377 0,0 0.033,-0.184 0.186,-0.247 0,0 0.039,0.102 -0.207,0.394 C 0.522,1.377 0.354,1.658 0.364,2 c 0,0 0.012,-0.129 0.21,-0.245 0,0 -0.07,0.171 -0.096,0.279 C 0.449,2.141 0.399,2.543 -0.234,2.663 -0.443,2.677 -1.22,2.548 -1.399,2.418 -1.577,2.288 -1.784,2.043 -1.762,1.763 -1.758,1.711 -1.62,1.425 -1.587,1.4 c 0.003,-0.033 0.003,-0.066 0.004,-0.099 0.002,-0.046 0.002,-0.081 0,-0.09 -0.004,-0.037 -0.046,-0.126 -0.008,-0.159 0.021,-0.019 0.032,-0.053 0.032,-0.091 0,-0.107 -0.113,-0.512 -0.113,-0.588 0,-0.074 0.018,-0.17 0.151,-0.153 0.05,0.009 0.089,0.02 0.118,0.033 0.004,-0.041 0.001,-0.142 -0.003,-0.177 0.049,0.049 0.108,0.039 0.163,0.039 0.09,0 0.247,-0.015 0.247,-0.015 0,0 -0.132,-0.03 -0.224,-0.049 C -1.31,0.035 -1.35,0.043 -1.35,0.043 l -0.018,-0.088 c 0,0 0.195,0.015 0.284,0.084 0,0 -0.049,-0.096 -0.118,-0.125 -0.088,-0.035 -0.13,0.035 -0.166,0.041 0,0 0.087,-0.027 0.094,-0.133 0.009,-0.107 -0.048,-0.271 0.123,-0.287 0.088,-0.01 0.19,-0.016 0.287,-0.016 0.093,0 0.179,0.003 0.229,0.02 C -0.541,-0.434 -0.075,-0.232 0,0 M -1.01,1.019 C -1.067,0.961 -1.023,0.868 -1.157,0.858 -1.274,0.849 -1.313,1.031 -1.313,1.031 c 0,0 0.143,0.067 0.261,0.061 0.111,-0.006 0.141,-0.041 0.141,-0.041 0,0 -0.055,0.01 -0.099,-0.032 m -0.386,0.035 c -0.073,-0.002 -0.125,0.037 -0.125,0.037 0.125,0.092 0.333,0.166 0.449,0.16 0.211,-0.01 0.3,-0.165 0.3,-0.165 -0.361,0.141 -0.549,-0.028 -0.624,-0.032 m 0.685,0.452 c -0.056,0.015 -0.274,-0.069 -0.476,0.009 -0.197,0 -0.415,0.226 -0.415,0.226 -0.013,0.068 -0.003,0.082 0.039,0.071 0.041,-0.014 0.067,-0.083 0.099,-0.128 0.032,-0.047 0.121,-0.122 0.277,-0.169 0,0.103 -0.068,0.17 -0.068,0.17 0,0 0.087,-0.092 0.174,-0.113 0.52,-0.116 0.245,0.125 0.245,0.125 0.379,-0.169 0.269,-0.373 0.364,-0.592 -0.047,0.069 -0.057,0.17 -0.095,0.247 -0.071,0.139 -0.144,0.154 -0.144,0.154"
                     style="fill:#696a6b;fill-opacity:1;fill-rule:nonzero;stroke:none"
                     id="path4584"
                     inkscape:connector-curvature="0" /></g><g
                   id="g4586"
                   transform="translate(93.6758,14.9844)"><path
                     d="m 0,0 -3.202,0 0,1.955 -3.201,0 0,-1.955 -3.202,0 0,1.955 -3.203,0 0,-1.955 -3.202,0 0,1.955 -3.201,0 0,-1.955 -3.202,0 0,1.955 -3.201,0 0,-1.955 -3.201,0 0,1.955 -3.164,0 c 0.046,-1.334 0.244,-2.63 0.573,-3.871 1.275,-0.543 2.688,-0.848 4.192,-0.848 2.442,0 4.676,0.805 6.401,2.135 1.726,-1.33 3.96,-2.135 6.403,-2.135 l 0.006,0 c 2.441,0 4.673,0.805 6.4,2.135 1.726,-1.33 3.96,-2.135 6.402,-2.135 1.499,0 2.916,0.305 4.19,0.848 0.33,1.241 0.526,2.537 0.575,3.871 L 0,1.955 0,0 z"
                     style="fill:#696a6b;fill-opacity:1;fill-rule:nonzero;stroke:none"
                     id="path4588"
                     inkscape:connector-curvature="0" /></g><g
                   id="g4590"
                   transform="translate(72.5605,31.0938)"><path
                     d="m 0,0 c -0.194,0.037 -0.136,-0.092 -0.073,-0.156 0.385,-0.383 0.976,-1.156 1.001,-1.84 0,0 0.446,-0.166 0.523,0.482 0.047,0.389 -0.087,1.043 -0.157,1.223 0,0 0.049,-0.096 0.19,-0.459 0.196,-0.516 0.121,-0.697 0.206,-1.168 0.037,0.098 0.052,0.219 0.064,0.34 0.006,0.117 0.015,0.242 0.018,0.348 0.017,0.351 0.004,0.656 -0.055,0.787 -0.07,0.167 -0.109,0.248 -0.141,0.287 C 1.544,-0.113 1.086,0.469 1.086,0.469 1.062,0.332 1.001,0.232 0.922,0.162 0.748,-0.052 0.376,-0.074 0,0"
                     style="fill:#696a6b;fill-opacity:1;fill-rule:nonzero;stroke:none"
                     id="path4592"
                     inkscape:connector-curvature="0" /></g><g
                   id="g4594"
                   transform="translate(84.5186,31.2412)"><path
                     d="m 0,0 c 0.165,-0.046 0.386,-0.093 0.584,-0.101 0.209,0.02 0.421,0.065 0.549,0.151 0.1,0.066 0.216,0.181 0.312,0.308 C 1.489,0.413 1.526,0.473 1.558,0.53 1.569,0.55 1.572,0.569 1.581,0.59 1.605,0.675 1.613,0.834 1.378,1.013 1.285,1.081 1.177,1.317 1.169,1.334 1.071,1.302 0.985,1.374 0.985,1.374 0.86,1.337 0.8,1.416 0.8,1.416 0.755,1.403 0.656,1.428 0.611,1.56 0.663,1.364 0.265,1.175 0.12,0.991 -0.003,0.838 -0.085,1.03 -0.161,0.942 c 0,-0.121 0.051,-0.158 0.047,-0.222 0,0 -0.004,-0.204 -0.017,-0.264 C -0.158,0.329 -0.202,0.05 0,0"
                     style="fill:#696a6b;fill-opacity:1;fill-rule:nonzero;stroke:none"
                     id="path4596"
                     inkscape:connector-curvature="0" /></g><g
                   id="g4598"
                   transform="translate(87.292,17.9277)"><path
                     d="M 0,0 C -0.028,0.139 -0.086,0.121 -0.228,0.064 -0.332,0.02 -0.525,0.111 -0.645,0.139 -0.759,0.164 -0.774,0.127 -0.876,0.106 c -0.099,-0.022 -0.24,0.015 -0.24,0.015 -0.291,0.039 -0.267,-0.283 -0.267,-0.283 0.01,-0.036 0.029,-0.07 0.049,-0.101 0.069,-0.052 0.132,-0.065 0.179,-0.088 0.039,-0.02 0.032,-0.045 0.053,-0.081 0,0 0.373,-0.267 0.581,-0.035 0.049,0.106 -0.226,0.279 -0.197,0.264 0,0 0.14,-0.067 0.225,-0.168 0.086,-0.103 0.22,-0.172 0.308,-0.082 0.08,0.121 -0.212,0.318 -0.212,0.318 0,0 0.137,-0.068 0.22,-0.172 0.089,-0.109 0.166,-0.146 0.201,-0.003 -0.052,0.127 -0.191,0.23 -0.191,0.23 0,0 0.063,-0.033 0.132,-0.1 C 0.049,-0.258 0.12,-0.234 0.1,-0.092 0.079,-0.057 0,0 0,0"
                     style="fill:#696a6b;fill-opacity:1;fill-rule:nonzero;stroke:none"
                     id="path4600"
                     inkscape:connector-curvature="0" /></g><g
                   id="g4602"
                   transform="translate(3.9502,17.5879)"><path
                     d="m 0,0 -2.512,3.586 0,-3.586 -1.438,0 0,7.535 1.438,0 0,-3.515 2.364,3.515 1.655,0 L -1.085,3.871 1.644,0 0,0 z"
                     style="fill:#696a6b;fill-opacity:1;fill-rule:nonzero;stroke:none"
                     id="path4604"
                     inkscape:connector-curvature="0" /></g><g
                   id="g4606"
                   transform="translate(9.5801,24.0156)"><path
                     d="m 0,0 c -1.428,0 -2.479,-1.142 -2.479,-2.66 0,-1.529 1.051,-2.66 2.479,-2.66 1.416,0 2.466,1.131 2.466,2.66 C 2.466,-1.142 1.416,0 0,0 m 0,-6.576 c -2.353,0 -4.008,1.621 -4.008,3.916 0,2.33 1.621,3.904 4.008,3.904 2.374,0 3.996,-1.574 3.996,-3.904 C 3.996,-4.955 2.34,-6.576 0,-6.576"
                     style="fill:#696a6b;fill-opacity:1;fill-rule:nonzero;stroke:none"
                     id="path4608"
                     inkscape:connector-curvature="0" /></g><g
                   id="g4610"
                   transform="translate(21.3193,17.5879)"><path
                     d="M 0,0 0,5.526 C -0.057,5.139 -0.046,5.08 -0.284,4.453 L -2.009,0 -3.299,0 -4.875,4.373 c -0.159,0.434 -0.171,0.56 -0.284,1.199 l 0,-5.572 -1.303,0 0,7.535 1.724,0 2.009,-5.377 c 0.081,-0.217 0.115,-0.297 0.148,-0.582 0.047,0.354 0.07,0.401 0.138,0.582 l 2.089,5.377 1.723,0 L 1.369,0 0,0 z"
                     style="fill:#696a6b;fill-opacity:1;fill-rule:nonzero;stroke:none"
                     id="path4612"
                     inkscape:connector-curvature="0" /></g><g
                   id="g4614"
                   transform="translate(31.0322,17.5879)"><path
                     d="M 0,0 0,5.526 C -0.058,5.139 -0.047,5.08 -0.285,4.453 L -2.011,0 -3.301,0 -4.876,4.373 c -0.16,0.434 -0.172,0.56 -0.285,1.199 l 0,-5.572 -1.303,0 0,7.535 1.724,0 2.011,-5.377 c 0.079,-0.217 0.114,-0.297 0.148,-0.582 0.045,0.354 0.069,0.401 0.137,0.582 l 2.089,5.377 1.723,0 L 1.368,0 0,0 z"
                     style="fill:#696a6b;fill-opacity:1;fill-rule:nonzero;stroke:none"
                     id="path4616"
                     inkscape:connector-curvature="0" /></g><g
                   id="g4618"
                   transform="translate(39.4209,17.9883)"><path
                     d="m 0,0 c -0.548,-0.377 -1.188,-0.549 -2.123,-0.549 -0.947,0 -1.565,0.16 -2.134,0.549 -0.778,0.535 -1.028,1.165 -1.028,2.546 l 0,4.589 1.426,0 0,-4.669 c 0,-1.119 0.582,-1.679 1.782,-1.679 1.096,0 1.678,0.595 1.678,1.679 l 0,4.669 1.438,0 0,-4.589 C 1.039,1.165 0.788,0.548 0,0"
                     style="fill:#696a6b;fill-opacity:1;fill-rule:nonzero;stroke:none"
                     id="path4620"
                     inkscape:connector-curvature="0" /></g><g
                   id="g4622"
                   transform="translate(47.1455,17.5195)"><path
                     d="m 0,0 -3.232,4.875 c -0.023,0.035 -0.069,0.137 -0.16,0.298 -0.045,0.091 -0.08,0.147 -0.091,0.159 -0.045,0.092 -0.069,0.137 -0.102,0.263 l 0,-5.527 -1.37,0 0,7.536 1.654,0 3.162,-4.956 C -0.126,2.627 -0.093,2.569 -0.058,2.49 -0.024,2.41 0,2.363 0.011,2.341 l 0.068,-0.195 0.068,-0.137 0,5.595 1.36,0 L 1.507,0 0,0 z"
                     style="fill:#696a6b;fill-opacity:1;fill-rule:nonzero;stroke:none"
                     id="path4624"
                     inkscape:connector-curvature="0" /></g><g
                   id="g4626"
                   transform="translate(50.498,17.5879)"><path
                     d="m 0,0 0,7.535 4.589,0 0,-1.221 -3.151,0 0,-1.861 2.582,0 0,-1.222 -2.582,0 0,-2.008 3.3,0 L 4.738,0 0,0 z"
                     style="fill:#696a6b;fill-opacity:1;fill-rule:nonzero;stroke:none"
                     id="path4628"
                     inkscape:connector-curvature="0" /></g><g
                   id="g4630"
                   transform="translate(16.3301,34.084)"><path
                     d="m 0,0 -0.864,-2.719 1.74,0 L 0,0 z m 1.854,-5.789 -0.592,1.853 -2.512,0 -0.614,-1.853 -1.501,0 2.718,7.506 1.283,0 2.718,-7.506 -1.5,0 z"
                     style="fill:#696a6b;fill-opacity:1;fill-rule:nonzero;stroke:none"
                     id="path4632"
                     inkscape:connector-curvature="0" /></g><g
                   id="g4634"
                   transform="translate(23.4072,34.084)"><path
                     d="m 0,0 -0.864,-2.719 1.738,0 L 0,0 z m 1.852,-5.789 -0.59,1.853 -2.512,0 -0.614,-1.853 -1.502,0 2.72,7.506 1.283,0 2.717,-7.506 -1.502,0 z"
                     style="fill:#696a6b;fill-opacity:1;fill-rule:nonzero;stroke:none"
                     id="path4636"
                     inkscape:connector-curvature="0" /></g><g
                   id="g4638"
                   transform="translate(29.9814,34.583)"><path
                     d="m 0,0 -0.934,0 0,-2.069 0.934,0 c 0.908,0 1.307,0.319 1.307,1.069 0,0.717 -0.376,1 -1.307,1 m 1.499,-6.289 -1.716,3.004 -0.717,0 0,-3.004 -1.433,0 0,7.507 2.503,0 c 1.093,0 1.593,-0.137 2.037,-0.558 0.407,-0.376 0.612,-0.921 0.612,-1.626 0,-0.58 -0.138,-1.047 -0.408,-1.41 C 2.09,-2.74 1.83,-2.899 1.205,-3.069 l 1.862,-3.22 -1.568,0 z"
                     style="fill:#696a6b;fill-opacity:1;fill-rule:nonzero;stroke:none"
                     id="path4640"
                     inkscape:connector-curvature="0" /></g><g
                   id="g4642"
                   transform="translate(39.417,28.2949)"><path
                     d="m 0,0 0,3.22 -3.856,0 0,-3.22 -1.431,0 0,7.504 1.431,0 0,-3 3.856,0 0,3 1.434,0 L 1.434,0 0,0 z"
                     style="fill:#696a6b;fill-opacity:1;fill-rule:nonzero;stroke:none"
                     id="path4644"
                     inkscape:connector-curvature="0" /></g><g
                   id="g4646"
                   transform="translate(47.8027,28.6934)"><path
                     d="m 0,0 c -0.545,-0.375 -1.183,-0.545 -2.113,-0.545 -0.946,0 -1.562,0.158 -2.127,0.545 -0.775,0.533 -1.024,1.16 -1.024,2.537 l 0,4.568 1.42,0 0,-4.65 c 0,-1.113 0.58,-1.67 1.773,-1.67 1.092,0 1.672,0.592 1.672,1.67 l 0,4.65 1.432,0 0,-4.568 C 1.033,1.16 0.783,0.546 0,0"
                     style="fill:#696a6b;fill-opacity:1;fill-rule:nonzero;stroke:none"
                     id="path4648"
                     inkscape:connector-curvature="0" /></g><g
                   id="g4650"
                   transform="translate(54.7285,34.0151)"><path
                     d="m 0,0 c -0.797,0.352 -1.445,0.533 -1.944,0.533 -0.67,0 -1.104,-0.272 -1.104,-0.692 0,-0.319 0.183,-0.512 0.718,-0.798 1.147,-0.613 1.899,-1.089 2.252,-1.443 0.318,-0.316 0.511,-0.818 0.511,-1.34 0,-1.343 -0.979,-2.127 -2.64,-2.127 -0.228,0 -0.454,0.011 -0.672,0.045 -0.531,0.071 -0.781,0.16 -1.566,0.522 -0.103,0.047 -0.273,0.127 -0.491,0.229 l 0.604,1.32 c 0.548,-0.297 0.772,-0.411 1.068,-0.525 0.376,-0.136 0.785,-0.215 1.081,-0.215 0.661,0 1.091,0.296 1.091,0.751 0,0.319 -0.17,0.533 -0.659,0.806 l -1.159,0.66 c -1.331,0.76 -1.74,1.262 -1.74,2.081 0,0.374 0.113,0.761 0.295,1.046 0.125,0.193 0.318,0.387 0.556,0.556 0.546,0.376 1.013,0.501 1.889,0.501 0.502,0 0.944,-0.057 1.407,-0.193 0.365,-0.114 0.57,-0.194 1.071,-0.432 L 0,0 z"
                     style="fill:#696a6b;fill-opacity:1;fill-rule:nonzero;stroke:none"
                     id="path4652"
                     inkscape:connector-curvature="0" /></g></g></g></g></g></g></g></g></svg>